<?xml version="1.0" encoding="UTF-8"?>
<svg version="1.1" viewBox="0 0 1024 1024" width="1280" height="1280" xmlns="http://www.w3.org/2000/svg">
<path transform="translate(494,117)" d="m0 0h32l29 2 32 5 29 7 36 12 25 11 27 14 24 15 18 13 13 10 13 12 8 7 20 20 7 8 14 17 8 11 13 19 13 22 11 21 11 25 8 22 8 28 6 26 4 25 2 22v54l-3 30-7 36-10 35-9 24-15 33-15 26-13 20-12 16-11 14-14 15-20 20-11 9-14 12-18 13-17 11-21 12-16 8-17 8-28 11-20 6-25 6-31 5-24 2h-47l-29-3-30-5-24-6-32-11-25-11-16-8-21-11-19-12-19-14-13-10-13-12-8-7-21-21-9-11-10-12-14-19-15-24-10-18-8-16-6-13-9-24-7-22-7-29-4-22-3-31v-51l3-30 4-23 6-26 7-24 9-25 9-20 13-26 13-21 14-20 14-18 12-13 7-8 25-25 11-9 10-8 15-11 22-14 24-13 30-14 28-10 16-5 29-7 24-4 17-2z" fill="#2F2427"/>
<path transform="translate(510,209)" d="m0 0 23 1 19 3 21 6 16 6 16 8 14 8 19 14 16 15 12 14 10 14 11 19 7 15 8 24 4 20 2 17v29l-4 27-7 24-10 23-8 14-11 16-11 13-16 16-13 10-19 12-21 10-24 8-16 3-1-1v-48l8 1 11 2h13l11-3 11-6 9-7 15-15 1-4-26 1-16 3-13 5-13 7-12 8-5 4-1 140-13 18-5 8h-1v-181l8-10 11-13 14-9 24-11 15-9 13-11 9-9 4-5v-4l-7 1-16 7-21 12-24 18-11 9-12 12-7 9h-1v-27l12-13 14-12 20-15 12-8 13-10 11-9 8-7 7-8 9-11 9-14 1-5-6 2-14 10-13 10-14 12-26 22-11 9-10 9-8 7-4 4h-2l3-10 7-14 9-12 7-8 6-5 2-3-1-5-6 1-13 13-9 12-8 15-3 7h-2v-84l10-8 12-9 15-14 8-8 9-11 9-12-1-4-4-1-6 5-7 8-17 16-12 11-11 9-3 3h-2v-27l9-10 26-26 7-8 9-10 5-7 1-5h-6l-12 11-11 11-8 7-14 13-6 4-1-44-3-20-3-3-3 3-3 18-1 74-4-1-1-1-1-15-5-19-8-13-7-8-12-9-16-8-16-5h-7l3 10 8 18 9 15 8 10 10 10 18 13 11 8 10 9v92h-3l-13-18-10-14-9-12-7-9v-2l-6 1 1 5 13 19 8 11 10 15 3 5-1 3-20-12-17-13-13-10-20-15-14-10-8-4h-2l1 6 7 11 12 14 12 11 18 13 29 15 28 11 1 1v50l-1 9-8-6-15-14-12-11-14-15-9-11-7-8v-2l-7-1-1 4 7 11 11 14 13 15 23 23 14 11 5 4v23l-7-4-26-20-16-9-12-5-18-4-14-1h-11l-2 1 1 4 15 15 13 9 8 4 10 2h12l12-2h7l2 4-1 44-20-4-24-8-22-11-19-13-11-9-20-20-10-13-12-20-9-19-8-24-4-17-2-14v-39l3-20 5-19 6-17 8-17 11-18 9-12 9-11 18-18 16-12 20-12 13-6 19-7 19-5 19-3z" fill="#F4EFDE"/>
<path transform="translate(494,117)" d="m0 0h32l29 2 32 5 29 7 36 12 25 11 27 14 24 15 18 13 13 10 13 12 8 7 20 20 7 8 14 17 8 11 13 19 13 22 11 21 11 25 8 22 8 28 6 26 4 25 2 22v54l-3 30-7 36-10 35-9 24-15 33-15 26-13 20-12 16-11 14-14 15-20 20-11 9-14 12-18 13-17 11-21 12-16 8-17 8-28 11-20 6-25 6-31 5-24 2h-47l-29-3-30-5-24-6-32-11-25-11-16-8-21-11-19-12-19-14-13-10-13-12-8-7-21-21-9-11-10-12-14-19-15-24-10-18-8-16-6-13-9-24-7-22-7-29-4-22-3-31v-51l3-30 4-23 6-26 7-24 9-25 9-20 13-26 13-21 14-20 14-18 12-13 7-8 25-25 11-9 10-8 15-11 22-14 24-13 30-14 28-10 16-5 29-7 24-4 17-2zm3 30-34 3-18 3-23 5-29 9-26 10-25 12-22 12-12 8-17 12-13 11-11 10-8 7-15 15-7 8-14 17-13 18-11 17-9 16-8 16-9 19-11 31-8 30-6 33-2 18-1 15v34l2 24 6 36 7 28 10 30 8 18 8 16 10 19 13 20 10 14 11 14 12 14 24 24 11 9 18 14 13 9 19 12 35 18 19 8 25 9 30 8 30 5 19 2 18 1h16l29-2 22-3 20-4 29-8 27-10 20-9 25-13 18-11 19-13 16-13 14-12 24-24 9-11 10-13 14-20 13-22 14-27 8-19 12-36 6-25 5-28 2-19 1-27-1-28-3-27-6-31-8-29-7-20-11-26-14-27-13-21-12-16-10-13-12-14-11-12-11-11-8-7-13-11-16-12-21-14-16-9-21-11-27-11-27-9-30-7-27-4-27-2z" fill="#F2ECDB"/>
<path transform="translate(775,658)" d="m0 0 5 3 2 2v91l-5 6-21 21-8 7-15 13-18 13-15 10-21 12-15 8-28 12-26 9-14 4-15 3-3 1h-7v-104l3-3 28-13 32-14 36-16 30-13 27-12 13-6h2l-2-5-3-1-31 14-26 11-29 13-41 18-31 14-12 6-2 3-1 5-1 105-9 2-18 1h-10l1-4-5-1-1-3-2-1-3 3 1-9 1 2h2l-2-4-4 2 1-3h2l-1-2-5 4h-2l-2-7-2 4-4 1-2 4h2v3l-5 1-2-1-1-3-2 4 6 1-1 3h-1l1 4-4 1-1-2-1 2-5-1-7 1-13-1-5-2v-101l-3-9-5-4-42-19-43-19-37-16-45-19-5-1-1 1v5l26 11 35 15 36 16 30 13 37 17 9 5v93l-1 9h-9v-2l-2 1 1-5h-1l-1 3-2-1-2-2-2 3-1-8h-1l1 2-2 2-4 1-3-5-2 1v-3h-2l1 3h-5l-1-3-4 1-4-3-1 1-2-1-1-8-2 5h-1v-6h-2l1 5-3-1-2-5v-2l-3-1-1-3h2l-2-2-1 3h-5l-1-1-1-2-4 2-1-4 2-1v-3-3-2l-4 3-2-1 1 6h-2l-3-5-5-2-6-1v2l-4-1 2-1v-2h-3l-2-4-4 2h-3l2-5-1-1h-3-3-3l2-7-4 2 1 4-5-1-1-5h2v-4l-7-2 2 4-5-2v-3l-1 2h-2l-2-2-2-1v-2l1-1h-3v-3l3-3-7-1-4-2-2 3-2-1-3 4-3-1h2l1-4v-3l-5-2-1 2-3-6h-2l-1-6 2 1-2-2-1-2h-2l2 4-2 1v-2h-3l1 6h-2v-7h-2v-4-4h-2l1 5h-2v-3h-2l-1 5 2 2-3 1-1-1 1-8 3-1 1-2-3-1-2 2-2-8h-4v-2l-4 2v-3h-3l1-2-2-3-2-1v-2l-3 2-2 2-3-4v-3h-2l-2-3-1-17v-60l5-5 7 1 59 24 27 11 28 12 41 18 33 15 24 12 5 4 8 13 7 6 11 5 9 2h20l14-4 10-6 6-8 4-8 10-7 27-13 36-16 25-11 39-17 31-13 41-17z" fill="#F49E85"/>
<path transform="translate(494,117)" d="m0 0h32l29 2 32 5 29 7 36 12 25 11 27 14 24 15 18 13 13 10 13 12 8 7 20 20 7 8 14 17 8 11 13 19 13 22 11 21 11 25 8 22 8 28 6 26 4 25 2 22v54l-3 30-7 36-10 35-9 24-15 33-15 26-13 20-12 16-11 14-14 15-20 20-11 9-14 12-18 13-17 11-21 12-16 8-17 8-28 11-20 6-25 6-31 5-24 2h-47l-29-3-30-5-24-6-32-11-25-11-16-8-21-11-19-12-19-14-13-10-13-12-8-7-21-21-9-11-10-12-14-19-15-24-10-18-8-16-6-13-9-24-7-22-7-29-4-22-3-31v-51l3-30 4-23 6-26 7-24 9-25 9-20 13-26 13-21 14-20 14-18 12-13 7-8 25-25 11-9 10-8 15-11 22-14 24-13 30-14 28-10 16-5 29-7 24-4 17-2zm-9 10-30 3-31 6-31 9-27 10-20 9-20 10-22 13-12 8-21 16-11 9-15 14-19 19-9 11-10 12-9 12-9 13-12 19-15 28-8 18-8 21-8 27-6 24-5 29-2 19-1 16v33l2 27 6 39 5 20 3 9 2 7 4 13 2 1v4h2l-1 4 6 14 4 5 3 6v3h2l1 5 3 4v2h2l-1 4h2v2h3l-1 3h2l1 4v3h2l1 4 2 2 1 2 3 1-1 4 4-1-1 5 2 2 1 2 2-1-1 4 4 4h3l-1 4 2 1 2 2 1 2 2-1-1 3 2 2 2 4h5l-2 1v3h3v3h3l1 5 4 1 5 9 5 3 1 3 6 4h2v5h5l2 6 5 1-1 3 2 2h3v3l6 2 1 2 2 1 1 2 4 2 1 3h4l-1 3 5 2 3 3h2v2h4v2h3v2l6 3 3 3h2v2h3v2l3 2 5 2 1 1 4 2h2l2 3 2-1 1 2 3-1-1 3h2l1 1 10 6 2-2 2 3 2-2 1 4 5 2 1-3v4l5 2 4 1 6 3 6 1 1 2 3-1v2l3 1 3-1 1 2v-2h2l-1 3h3l1 2 4-1 4 2h3l1 2h6v2l9 2h4v2l4-1 1 2 5 1 10 1 2 1 3-1 1 2 5-1v2l13 1 5 1 14 1 4 1 4-1v2l7-1 2 1h5v-2h2v2h9l9-1h6l6-2 1 2 3-1h8l13-2h2v-3l1 3h2v-2l3 1 7-1v-2l4 1 5-1 7-1 6-3 2 1 4-2 11-2 9-3 11-4 7-2 1-2 6-1 5-2 14-7 6-2 4-3 5-2 1-2 7-2 2-3 4-1 1-2h4v-2l5-1 7-5 2-2 3-1v-3l3 1 2-1 1-2 4-3 9-5v-2h2v-3h5l1-4 4-1 8-6 1-2h2l2-4h2l1-5 3 1 2-3 4-4h2v-2h2v-2l4-2 3-4 1-2 4-2 4-7h2l7-9v-2l4-2v-2l5-5v-3h3l4-7 1-2 4-4 3-4v-3h2l4-7 9-15 4-7 13-26 3-7 7-19 4-10 8-28 6-26 4-27 2-24v-42l-3-33-6-32-8-29-8-24-10-24-8-16-10-19-12-19-13-18-11-14-13-15-14-15-15-14-14-12-17-13-10-7-19-12-18-10-29-14-29-11-28-8-36-7-28-3z" fill="#372C2E"/>
<path transform="translate(780,666)" d="m0 0h2v88l-5 6-21 21-8 7-15 13-18 13-15 10-21 12-15 8-28 12-26 9-14 4-15 3-3 1h-7v-104l3-3 28-13 32-14 36-16 30-13 27-12 13-6h2l-2-5v-3z" fill="#F59E85"/>
<path transform="translate(707,393)" d="m0 0h1v29l-4 27-7 24-10 23-8 14-11 16-11 13-16 16-13 10-19 12-21 10-24 8-16 3-1-1v-48l8 1 11 2h13l11-3 11-6 9-7 15-15 1-4-26 1-16 3-13 5-13 7-12 8-5 4-1 140-13 18-5 8h-1v-181l8-10 11-13 14-9 24-11 15-9 13-11 9-9 4-5v-4l-7 1-16 7-21 12-24 18-11 9-12 12-7 9h-1v-27l12-13 14-12 20-15 12-8 13-10 11-9 8-7 7-8 6-7 2 4-5 3-7 7h3v-2l5 1 1 1h2l-1 3h-2l1 2h2l1-3 1 2 3-1 1 3 1-2h4v-2h2v2l12-5h5l1-2v2l7-1v2l4-2 3 3 1-3 2 1-1 2h3v-2h2l1-2 4-3v2l3 2-7 3 8-1v-2h2l1 2 6-3-1-3 8-1 1 2 2-2h3l-1-2h-3l1-3 3 1z" fill="#BEB8A2"/>
<path transform="translate(319,406)" d="m0 0h3l1 4 5-3 2 2h-3v2l7 2 3-2h1l3-2 1 2h2l2-3-1 6h2v-2h4 3v2l3 1 6-2 6 1 10 2h3v3h5v2l5-3v2h2l-1-3 2-1 1 2 1-2 3 1 1 4 1-3 3 1 1 2 3-1 1-2v2h2l1 1v-3l4-2 2-2 11 10 18 13 29 15 28 11 1 1v50l-1 9-8-6-15-14-12-11-14-15-9-11-7-8v-2l-7-1-1 4 7 11 11 14 13 15 23 23 14 11 5 4v23l-7-4-26-20-16-9-12-5-18-4-14-1h-11l-2 1 1 4 15 15 13 9 8 4 10 2h12l12-2h7l2 4-1 44-20-4-24-8-22-11-19-13-11-9-20-20-10-13-12-20-9-19-8-24-4-17-2-14v-13l1 3 1-5z" fill="#BEB8A2"/>
<path transform="translate(895,496)" d="m0 0h1v42l-3 33-5 28-7 27-8 26-5 11-4 11-6 13-5 9-4 9-4 7-10 17-3 5-2 1-2 4-4 6h-2l-1 4-3 5h-3l-1 4-4 4-2 4-2 1-3 5-4 5h-2l-4 7-4 2-2 4-4 4h-2v2h-2v2h-2l-7 7-2-1-1 5h-2l-2 4h-2l-5 5-5 4h-3l-2 4h-4v3h-2v2l-9 5-4 3-3 3-3-1-1 4h-3l-5 5-5 3h-3v2h-4l-1 2-5 1-1 3-7 2-4 4-10 5-5 2-11 5-7 2-5 1v2l-11 3-10 4-11 3-7 2-4 1h-3l-5 2-10 1-2 1-3-1v2l-8 1-2-1v2h-2l-1-3v3l-12 1-7 1h-6l-2 1v-2l-9 2h-8l-10 1h-3v-2h-2l-1 2h-5l-2-1-6 1v-2l-5 1-13-2h-5l-5-1-12-1v-2l-6 1v-2l-4 1-5-1-9-2h-3v-2l-4 1v-2h-7l-6-2v-2h-7v-2l-6-1h-3-2l-1-1-3-1 1-3h-2l-1 2v-2l-4 1-2-1v-2l-4 1v-2l-7-1-6-4-5-1-3-1v-4l-2 3-5-3v-3l-3 2-1-3-2 2-10-6-1-1-2-1 1-2-4 1v-2l-3 1-2-4h-3l-2-2-4-1-5-3v-2h-3v-2l-4-1-3-3-4-2v-2h-3v-2h-4v-2l-5-2-2-2-3-2 1-2h-4l-2-4-4-1v-3h-2l-2-2-5-2v-3l-4-1-1-2 1-2-5-1-2-6h-5v-5l-5-1v-2l-4-2-1-3-5-3-2-5-4-4h-2l-1-5-3-1v-2h-3l1-3 1-1h-5l-2-4-2-3 1-2-3 1v-3l-4-2 1-4-3-1-4-4 1-3-3 1-1-3-1-4 1-2-4 1 1-4-4-1v-3l-2-2-1-3-2-1v-2l-1-4-2-1 1-2h-3v-2l-2-1 1-3h-2l-2-5-2-3v-3h-2l-1-5-6-9-6-14 1-4h-2v-4l-2-1-3-11-2-4-1-6-2-6-5-18-6-35-2-19-1-16v-33h1l1 22 2 1 1 7 2 2h-2v2h2v5h-2v2l4-2-1 4 2 5 3 1v2l-4 2 3 1-2 4 5 4v2h-2v3l1 3-1 3 3-1-1 5 1 1-1 4 2 2 1 6 3-1v2l-4 4 3-1 2-2-1 9 2-1 1 5h1l2 11v3l-1 5 3 1 2 5v5l1-1 2 2-1 3v4h2l2 5 3 9-1 4 4-1-2 5 5 1 1 4 2 7 2 3-1 2h4v4l2 1v3l2-1-1 4 2 1v3 3l4 2 1 3 2-1-1 4 3-1 1 4h-2l1 3 4-1-1 3 1 4h2l1 6 3 1 2 6h2l1 3 2-2v4l2 1v3h2v4h2l2 4 5 1v3l2 3 2 2v2l5 2v2l3 1-2 1v2l3 1 1 4 3-1 2 1 2 3 1 4 3 1 2 3h2l1 4 3 1v2l5 2h2l3 3v3l3 1 3 3-1 2h4l3 3 2 1v4l4 1v3l4-1v3l4 1v2l4 1 3 1v2l4-1 2 3 3 1 2 2h2l1 2 3 1v3l4-1v2h2v2h2l1 2h3v3h2l1-2 1 4 5-1v2h3l1 3 3-1 2 3h2l1 2h3l2 2 2-2v3h4v3h2l1-3 3 5v-2h2l2 3h3l4 1 3 2h3l1 2h-2v2l6-2v4h2l1-3 4 2 7 2 1 1h2l2 3 1-2h2l1 2h4l5 3h3v2h2l1-2 5 2h3l2 2 1-2 2 3 2-2 3 3 11 1v2l6-2 4 1h6l1 2 4-2 1 2 1-1 10 1 3 1 4-1 4 2v-2l4 1 3-1v2l6-1h3l5-1h3 6v2l12-2 1 1 2-2h3l4 1v-2h4 9l1-2 5 2v-2l5 1 1-2 4 1v-2l10 1v-3l8-1 1-2 8 1 1-3 5 1 1-3 3 1 3-3 10-2 1-1 4 1 2-4 4 1 3-1 1-3 3 2 1-3 10-1v-3l9-2v-2l6-1 1-4 4 1 3-3h5l2-4 1 2h3l-2-4h3l4-2 2 1 1-3 1-2h6l1-4 1 2h2l-1-4 4 1v-2l4-1 2-3h2v-2h3v-3l5 1v-2h2l5-5 2-1v-2l4-1 2-3h4l2-7 5-2-1 2h2l1-6 2 1 2-5 4 3-1-4 1-2h2l1-4 4 1 1-3 3-1-2-4 3 1 1-4 3 2 1-5h2l1-5 4-1v-2h2l2-4 3 1v-2l-2-1 3-1v-2h2v-2h2l4-9 5-2v-3l2-5 1-2h2l1-3 3 1-2-6 4 1 2-4-2-1 2-2 1-2v-3l4 1v-6h3l2-4-1-3 3-1 1-2-2-2 3-1 2-5 3-4h-2l1-2h3l1-6 2-1v-2h2l1-4-1-2h4v-2l-3-1 4-3v-4l1-4 2-1-1-4 3-1-1-2h2l1-2 2-1-2-1v-2h2l1-3h3v-2l1-1h-3v2l-4-1h3l-1-6h2l1-3-1-3 2-1 1-3 2-2-1-3 3-1-1-7 3-5-1-5 5-1-1-6 2-1-2-8v-4l5-1 4 1-1-6-5 1-1-2 2-3 5 1 1-2h1l1-4-2 3-2-1v-3l-3-1 5-4-1-2h2v-2l-3 1v-2l-2-1 1-2-2-1h2l-1-5 2-3h3l1-3 2 1v-2h3v-2l-3-1 3-9-2-1h2z" fill="#BEB7A1"/>
<path transform="translate(238,664)" d="m0 0 4 4h-3l1 21 5 1v4l2 1-1 2h2l-2-7 3 1 1 5-2 4 3-4h2v6l1-3 3 1-3 6h2l2 2 7 2v-2l4 2h2v3l2 1v-2h2v3h2l1 3 5 2 1 3-1 2h2v-7l4 3v6h2l1 2h3l1-3 1 4 2-1h3l2 5v3l3 1v3h2l1 2 3-1 1 2 4 2 3 1 1 4 5-6h5v3h1v7l-1-2h-4l2 2 2 1 3 1 1-3 3 2v3l4-2 2 1v4l2-1 3 2h-3v2l7 1v3l5 2 1 1 2-3h3v2l-2 2 4-1-1 6 7 2 4 1 2 2h3v2h2l2 5 4-1v-2h2v5l5 1 1 5h4l-3-1 2-5 4 1 1-4v2l2 1-2 4 4-1-1 4-4 2 3 2 4-3-1 4 6-3 3 1v2l3-4 3 1v3l4-1-2 3 3 1v3h2l1-2 1 3-1 2h-3l4 1 6 1 1-3h2v3l2-3 1-2 1 1v6h2l-1-6 1-1 1-41h1v93l-1 9h-9v-2l-2 1 1-5h-1l-1 3-2-1-2-2-2 3-1-8h-1l1 2-2 2-4 1-3-5-2 1v-3h-2l1 3h-5l-1-3-4 1-4-3-1 1-2-1-1-8-2 5h-1v-6h-2l1 5-3-1-2-5v-2l-3-1-1-3h2l-2-2-1 3h-5l-1-1-1-2-4 2-1-4 2-1v-3-3-2l-4 3-2-1 1 6h-2l-3-5-5-2-6-1v2l-4-1 2-1v-2h-3l-2-4-4 2h-3l2-5-1-1h-3-3-3l2-7-4 2 1 4-5-1-1-5h2v-4l-7-2 2 4-5-2v-3l-1 2h-2l-2-2-2-1v-2l1-1h-3v-3l3-3-7-1-4-2-2 3-2-1-3 4-3-1h2l1-4v-3l-5-2-1 2-3-6h-2l-1-6 2 1-2-2-1-2h-2l2 4-2 1v-2h-3l1 6h-2v-7h-2v-4-4h-2l1 5h-2v-3h-2l-1 5 2 2-3 1-1-1 1-8 3-1 1-2-3-1-2 2-2-8h-4v-2l-4 2v-3h-3l1-2-2-3-2-1v-2l-3 2-2 2-3-4v-3h-2l-2-3-1-17z" fill="#D1907D"/>
<path transform="translate(562,771)" d="m0 0h1v104l-9 2-18 1h-10l1-4-5-1-1-3-2-1-3 3 1-9 1 2h2l-2-4-4 2 1-3h2l-1-2-5 4h-2l-2-7-2 4-4 1-2 4h2v3l-5 1-2-1-1-3-2 4 6 1-1 3h-1l1 4-4 1-1-2-1 2-5-1-7 1-13-1-5-2v-95l1-5 7 6 4 1v2l5 2 13 5 9 2h26l15-4 10-5h2v-2l7-3 2-2z" fill="#D3917E"/>
<path transform="translate(775,658)" d="m0 0 5 3 2 2v3l-37 17-51 22-77 34-29 13-18 8-5 5-3 11-6 5h-4v2l-12 6-15 4h-26l-15-4-12-6v-2l-5-1-5-4-2-3-3-9-5-4-42-19-43-19-37-16-45-19-21-9-13-6-12-6 1-4 3-3 7 1 59 24 27 11 28 12 41 18 33 15 24 12 5 4 8 13 7 6 11 5 9 2h20l14-4 10-6 6-8 4-8 10-7 27-13 36-16 25-11 39-17 31-13 41-17z" fill="#EFE9D8"/>
<path transform="translate(715,590)" d="m0 0 2 1 3 16-8 4-36 15-26 12-25 12-24 13-18 11-18 13-10 9-8 7-11 12-11 15-6 10-1-4 8-18 10-16 11-13 7-8 4-5 8-7 10-9 16-12 15-10 13-8 23-12 20-9 33-13 15-5z" fill="#F0EBDA"/>
<path transform="translate(289,632)" d="m0 0 11 3 41 15 29 12 24 11 16 8 17 9 23 15 10 8 11 9 10 11 9 13 6 12v2h-2l-7-9-12-11-18-13-19-12-23-12-31-15-37-15-20-8-46-18-3-2 2-4 5-4z" fill="#F0EBD9"/>
<path transform="translate(306,590)" d="m0 0 12 3 25 9 31 13 30 15 21 13 21 16 14 12 16 16 13 17 9 16 6 13-1 4-8-12-9-12-12-13-12-11-13-10-17-11-23-13-17-9-28-13-21-9-27-11-12-5-1-3z" fill="#F0EBD9"/>
<path transform="translate(730,632)" d="m0 0 4 1 6 8 4 4-8 4-31 12-29 12-26 11-36 16-22 11-22 13-15 11-13 11-7 6-6 7-1-3 7-13 10-13 14-14 17-13 18-11 26-14 29-14 41-17 35-13z" fill="#F0EBD9"/>
<path transform="translate(539,510)" d="m0 0h1v175l-13 18-5 8h-1v-181l8-10 7-8z" fill="#F1ECDB"/>
<path transform="translate(300,613)" d="m0 0 7 1 27 10 24 10 20 9 25 12 22 12 19 12 13 10 12 11 12 12 7 10 9 15 5 13-1 3-9-14-14-15-5-5-9-8-15-11-19-12-18-10-26-13-30-13-59-23-3-2 2-5z" fill="#EFEAD8"/>
<path transform="translate(719,613)" d="m0 0h3l6 12-1 4-40 15-35 15-30 14-25 13-18 11-17 12-14 12-11 11-11 15-4 7-1-3 5-13 8-14 10-13 18-18 16-12 19-12 19-11 17-9 28-13 31-13 24-9z" fill="#EFEAD8"/>
<path transform="translate(270,650)" d="m0 0 8 1 38 14 43 17 26 11 20 9 24 12 15 9 16 12 10 8 6 6v2l-5-2-23-11-25-12-36-16-36-15-27-11-38-15-26-10 1-3z" fill="#EFEAD8"/>
<path transform="translate(745,650)" d="m0 0 7 1 9 6-1 2-29 11-41 17-56 24-25 11-35 16-26 13v-3l11-10 13-10 15-10 31-16 37-16 31-13 36-14z" fill="#EEE9D7"/>
<path transform="translate(562,771)" d="m0 0h1v104l-3 1h-16l-2-3 4-2v-2h-2l-1-4h2l-2-7h2l-1-3-2-2h-2v-3l-2-1h4v-2l-3-1-2-6 2-4-2-1 1-2-2-1 1-2-2-1 1-2h-3v-6h2v-2h2v-2h-3l1-2 2 1-2-6 1-3-3 1v-7l5 1-3-2v-2l12-5 6-4 1-1v-5l-2-2 7-3 2-2z" fill="#F39E85"/>
<path transform="translate(216,522)" d="m0 0h12l10 5 6 8 2 6v8l-3 8-7 8-6 3-4 1h-8l-8-3-7-6-4-8-1-10 4-10 5-6z" fill="#EDE8D6"/>
<path transform="translate(650,315)" d="m0 0 4 1 1 3-7 8-9 10-8 7-13 11-24 16-16 8-15 6h-4l2-5 12-12 8-7 14-12 12-10 16-11 14-8z" fill="#2F2427"/>
<path transform="translate(372,319)" d="m0 0h17l16 4 13 5 13 7 12 9 7 8 8 10 3 5v5l-6-1-17-9-19-12-24-13-22-13z" fill="#2F2427"/>
<path transform="translate(443,266)" d="m0 0 7 1 10 4 11 7 10 9 6 7 7 15 2 8v11l-14-8-13-10-8-8-9-13-8-16z" fill="#F3EEDD"/>
<path transform="translate(796,454)" d="m0 0 9 1 7 4 5 6 1 3v11l-3 6-5 5-7 3h-8l-7-3-5-4-3-6-1-8 3-9 5-5 5-3z" fill="#F2EDDB"/>
<path transform="translate(571,769)" d="m0 0h1v85l1-3 6-2 1 2 5-1 1 2h3l1-3h3 2l1 2 3 1v-3h2l1 4-1 3 1 4-3-1v2h2l2 2 1-5h2l-1-2h-3l1-3-1-4 3 2v-3l5 1-1 2-2-1 1 2 3-1 3-3v2l4 1 1-2 1 5v3l4-1h3 5l1-3 1 1 2-3 3 1 1-3 9-1 1 2-25 10-15 5-14 4-15 3-3 1h-7z" fill="#DD9783"/>
<path transform="translate(461,774)" d="m0 0 7 6 4 2-3 1 1 6 6 4 1 3 5 2v7l-4 7 3 1-4 2v4l-3 1 1 6-1 2h3l-1 3-3 1v3h-2l1 1v3l-1 2h-2l-2 5-5-2 3 3-1 2-2-1 1 2h2l-1 4h-2l-1 3z" fill="#F49E85"/>
<path transform="translate(275,283)" d="m0 0h9l6 3 5 6 1 10-4 8-5 4-3 1h-8l-7-4-4-5-1-3v-8l3-6 6-5z" fill="#F1ECDA"/>
<path transform="translate(740,284)" d="m0 0h8l6 4 3 3 2 6-1 8-3 5-3 3-6 2h-7l-7-4-4-6v-11l4-6z" fill="#F2EDDC"/>
<path transform="translate(209,529)" d="m0 0 5 1v2h4l-1 4h3l1 5 3 1-2 2-2-1v2h6l2 7 5 2 4 2v2l2 1-7 5-6 2h-9v-2l-5-1-7-6-3-7v-9l3-8z" fill="#BEB6A1"/>
<path transform="translate(469,782)" d="m0 0 5 1 10 5 15 4h26l15-4 12-6 3 1v5l-6 5-11 5-12 3-8 1h-14l-16-3-14-6-5-4-1-6z" fill="#2F2427"/>
<path transform="translate(411,524)" d="m0 0h11l17 4 12 5 14 8-2 3-11 3h-9l-10-3-11-7-10-10z" fill="#BEB7A1"/>
<path transform="translate(605,524)" d="m0 0h8l-2 5-8 8-10 6-7 3-12 1-12-3-3-3 25-12 14-4z" fill="#BEB7A1"/>
<path transform="translate(278,458)" d="m0 0 7 1 7 6 1 3v8l-4 6-5 3h-9l-6-4-3-8 1-7 4-5z" fill="#E6E1CF"/>
<path transform="translate(553,420)" d="m0 0 1 4-1 3h-1v2h2l1 2h3 2l-2-1v-2l4 1 1 5-11 9-10 9-8 7-4 4h-2l3-10 7-14 9-12z" fill="#BFB8A3"/>
<path transform="translate(411,714)" d="m0 0 5 1 9 3 15 7 5 1h3l12 9 10 8 6 6v2l-5-2-23-11-14-7 3-1 4 1-3-2-4-1-4-4-12-5-7-4z" fill="#BFB8A2"/>
<path transform="translate(735,511)" d="m0 0h4l1 9 5-3 4-1 1 4-7 5 5 4 2 4-4 1-6-3-1 9-4-1v-9l-7 4h-3l1-5 5-3 1-2-5-2-3-3 2-3 5 2 4 3z" fill="#E4DECC"/>
<path transform="translate(204,536)" d="m0 0h4l2 8 2 1 1 2 2 1-1 3h2l4 5h3l2 6-1 3h-7l-8-4-5-6-2-5v-9z" fill="#312629"/>
<path transform="translate(380,472)" d="m0 0h11l10 4 9 7v2h-18l-12-3-6-4 1-4z" fill="#2F2427"/>
<path transform="translate(444,271)" d="m0 0 4 4 8 12 6 7 7 8 7 7 11 9 7 6 1-7h1v11l-14-8-13-10-8-8-9-13-8-16z" fill="#BEB7A1"/>
<path transform="translate(637,472)" d="m0 0h8l6 3-1 4-8 4-9 2h-16l2-4 11-7z" fill="#2F2427"/>
<path transform="translate(582,725)" d="m0 0 1 3 7-3 3 1h2l3 1-26 12-24 12v-3l11-10 9-7h5l8-5z" fill="#BFB9A3"/>
<path transform="translate(624,284)" d="m0 0 4 2-1 5-6 8-7 6-9 4-1-4 6-12 9-7z" fill="#2F2427"/>
<path transform="translate(648,415)" d="m0 0h13l5 3v4l-11 3-6 1h-13l-2-1 1-4 9-5z" fill="#2F2427"/>
<path transform="translate(397,284)" d="m0 0h6l8 5 7 8 1 7-7-1-9-6-5-6z" fill="#2F2427"/>
<path transform="translate(362,415)" d="m0 0 11 1 8 5-1 4-3 1h-13l-10-3-1-2 5-5z" fill="#2F2427"/>
<path transform="translate(568,716)" d="m0 0 2 1-11 9-11 10-6 9-5 5-8 9-1-3 7-13 10-13 3-2v3l14-11z" fill="#BFB9A3"/>
<path transform="translate(276,464)" d="m0 0h7l5 5v6l-5 5h-7l-4-4-1-6z" fill="#2F2427"/>
<path transform="translate(196,422)" d="m0 0 2 2 4 8 5 4 5 2 9-1 8-5 5-9h1l-1 8-4 6-5 4-4 2h-11l-6-3-5-6-3-7z" fill="#DDD7C3"/>
<path transform="translate(522,368)" d="m0 0 2 1-2 2v61l2 1v6l1-2h3l-1-3h2v-3l3 1-2 6-8 16h-2v-84z" fill="#C0BAA4"/>
<path transform="translate(505,350)" d="m0 0h1v92h-3l-13-18v-3l6 4 1 4h2l4 4v2h2z" fill="#BEB7A1"/>
<path transform="translate(818,571)" d="m0 0 3 1 2 6 5 5-6 7-2 4h-2l-3-7-4-3 1-4 4-3z" fill="#E6E1CE"/>
<path transform="translate(745,376)" d="m0 0h6l4 5-1 6-3 3h-6l-4-4v-7z" fill="#E8E3D0"/>
<path transform="translate(613,848)" d="m0 0 1 2 4 1 1-2 1 5v3l4-1h3 5l1-3 1 1 2-3 3 1 1-3 9-1 1 2-25 10-10 3-3-1 3-3 1-6-2 1v-2l-4 1z" fill="#DC9783"/>
<path transform="translate(468,427)" d="m0 0 2 1-1 2 3-1 2 1v2l5-2v4l3 1v-2l-2-2 4-2 9 14-1 3-20-12-7-5z" fill="#BFB9A3"/>
<path transform="translate(324,235)" d="m0 0h6l3 3v7l-4 3-6-1-2-3 1-7z" fill="#EAE5D3"/>
<path transform="translate(755,303)" d="m0 0h3l-2 6-4 4-6 2h-7l-7-4-2-4 6 4 1-2v3h6l2-1v-2h6l2-1 1-3z" fill="#BFB9A3"/>
<path transform="translate(457,717)" d="m0 0 5 2 8 5-4-5 4 2 11 12 3 4-1 2-14-12-12-9z" fill="#BEB8A2"/>
<path transform="translate(506,854)" d="m0 0 2 1 1 7 4-3h2l1-2 1 3-2 1v5l-3 1-3-2-1 4-5-1 3-1 1-4h-6v-2l4-1 1-4-2-1z" fill="#704F4A"/>
<path transform="translate(790,395)" d="m0 0 7 1 1 7-4 3-5-2-1-1v-6z" fill="#EC9D85"/>
<path transform="translate(261,384)" d="m0 0 5 1 2 5-4 4-4-1-2-3 1-4z" fill="#E6E1CE"/>
<path transform="translate(890,538)" d="m0 0h1v6l2 1-2 3h-2v4 1h-5l1-3-2-1h2l-1-5 2-3h3z" fill="#C8C2AD"/>
<path transform="translate(486,741)" d="m0 0 4 5 6 12v2h-2l-7-9-2-3h2l-2-5z" fill="#BFB9A4"/>
<path transform="translate(589,849)" d="m0 0 3 1 3-1 1 2 3 1v-3h2l1 4-1 3 1 4-3-1v2h-2l-1-6 3-1-10-2z" fill="#DB9783"/>
<path transform="translate(895,496)" d="m0 0h1v40l-4-2 3-9-2-1h2z" fill="#BFB8A2"/>
<path transform="translate(612,852)" d="m0 0h4v3l-1 5-5 2-3-2 1-3 2 2v-6z" fill="#F39E85"/>
<path transform="translate(376,827)" d="m0 0h2l2 5-2 2v3l-5-1-2-7 4-1z" fill="#75534C"/>
<path transform="translate(570,665)" d="m0 0 2 1-23 23v-3l12-12z" fill="#D6D0BD"/>
<path transform="translate(228,338)" d="m0 0 5 1 1 4-2 3-5-1-1-4z" fill="#E6E1CE"/>
<path transform="translate(191,623)" d="m0 0 4 1 1 1v5l-5 1-2-5z" fill="#E3DECB"/>
<path transform="translate(308,735)" d="m0 0 2 2 3-2 1 7-4 1-1 3v-5h-2v-5z" fill="#E49984"/>
<path transform="translate(706,262)" d="m0 0h5l1 5-4 2-3-3z" fill="#CAA994"/>
<path transform="translate(324,545)" d="m0 0 4 1v5l-5 1-1-1v-5z" fill="#DAD5C1"/>
<path transform="translate(601,850)" d="m0 0 3 3-2 1 2 2 2-1v3l-2 1-1 3 2 1-3 1-1-3h-2v-2h2l-1-4z" fill="#F69F86"/>
<path transform="translate(402,849)" d="m0 0 1 3 6 1 2-1-1 5-4-1-1 1-2-1z" fill="#DB9783"/>
<path transform="translate(589,852)" d="m0 0 11 1-2 3-2-1-4 1-1 3h-2v-4h2v-2z" fill="#F69F86"/>
<path transform="translate(461,774)" d="m0 0 7 6 4 2-3 1-2 4v-6l-6-2z" fill="#D2A08C"/>
<path transform="translate(412,798)" d="m0 0h5v4l-6 2v-5z" fill="#E69A84"/>
<path transform="translate(553,420)" d="m0 0 1 4-1 3h-3-3zm-7 8 2 2 2 3-4-1-1-3z" fill="#D3CEB9"/>
<path transform="translate(410,796)" d="m0 0 3 2-3 3-2 3-4-1 2-4 3-1z" fill="#F29D85"/>
<path transform="translate(889,542)" d="m0 0h2v2l2 1-2 3h-2v2l-3 1v-5l3-3z" fill="#E6E1CF"/>
<path transform="translate(423,806)" d="m0 0h3v7l2 1-4-1-4-6z" fill="#F69F86"/>
</svg>
